<mxfile host="app.diagrams.net" modified="2020-04-01T22:11:24.182Z" agent="5.0 (X11)" etag="p5Z5iZSahvtCL3wfuDnl" version="12.9.6" type="github">
  <diagram id="xl09C7UO9ynHSHfOABeK" name="Page-1">
    <mxGraphModel dx="1305" dy="752" grid="1" gridSize="10" guides="1" tooltips="1" connect="1" arrows="1" fold="1" page="1" pageScale="1" pageWidth="850" pageHeight="1100" math="0" shadow="0">
      <root>
        <mxCell id="0" />
        <mxCell id="1" parent="0" />
        <mxCell id="4wXdH_TcK7xXhw2TwfW8-1" value="&lt;div align=&quot;left&quot;&gt;&amp;lt; activity &amp;gt;&lt;/div&gt;" style="rounded=0;whiteSpace=wrap;html=1;align=left;" vertex="1" parent="1">
          <mxGeometry x="40" y="40" width="280" height="30" as="geometry" />
        </mxCell>
      </root>
    </mxGraphModel>
  </diagram>
</mxfile>
